<svg width="32" height="23" viewBox="0 0 32 23" fill="none" xmlns="http://www.w3.org/2000/svg">
<path fill-rule="evenodd" clip-rule="evenodd" d="M0 1.5C0 0.671573 0.671573 0 1.5 0H10.5C11.3284 0 12 0.671573 12 1.5C12 2.32843 11.3284 3 10.5 3H1.5C0.671573 3 0 2.32843 0 1.5ZM0 11.5C0 10.6716 0.671573 10 1.5 10H30.5C31.3284 10 32 10.6716 32 11.5C32 12.3284 31.3284 13 30.5 13H1.5C0.671573 13 0 12.3284 0 11.5ZM1.5 20C0.671573 20 0 20.6716 0 21.5C0 22.3284 0.671573 23 1.5 23H18.5C19.3284 23 20 22.3284 20 21.5C20 20.6716 19.3284 20 18.5 20H1.5Z" fill="black"/>
</svg>
